<svg width="85" height="55" viewBox="0 0 85 55" fill="none" xmlns="http://www.w3.org/2000/svg">
<g clip-path="url(#clip0)">
<path d="M31.2561 12.8569V0.0078125H55.9401V12.6203L53.767 10.4472L49.2047 15.0059L43.7717 9.54159L37.9289 15.4034L33.3185 10.793L31.2561 12.8569Z" fill="#FFE7AF"/>
<path d="M44.0339 26.1607V20.3506H43.5418V26.1607H44.0339Z" fill="#1C4C9F"/>
<path d="M42.4514 19.1603C42.4514 19.4249 42.5299 19.6836 42.6769 19.9037C42.8239 20.1237 43.0329 20.2952 43.2774 20.3965C43.5219 20.4978 43.7909 20.5243 44.0505 20.4727C44.31 20.421 44.5485 20.2936 44.7356 20.1065C44.9227 19.9193 45.0502 19.6809 45.1018 19.4213C45.1534 19.1618 45.1269 18.8928 45.0256 18.6483C44.9244 18.4038 44.7529 18.1948 44.5328 18.0478C44.3128 17.9007 44.0541 17.8223 43.7894 17.8223C43.4346 17.8223 43.0942 17.9632 42.8433 18.2142C42.5924 18.4651 42.4514 18.8054 42.4514 19.1603ZM44.6914 19.1603C44.6914 19.3387 44.6385 19.5131 44.5394 19.6614C44.4403 19.8097 44.2994 19.9254 44.1346 19.9936C43.9698 20.0619 43.7884 20.0798 43.6135 20.045C43.4385 20.0102 43.2778 19.9243 43.1516 19.7981C43.0255 19.672 42.9396 19.5112 42.9048 19.3363C42.87 19.1613 42.8879 18.98 42.9561 18.8151C43.0244 18.6503 43.14 18.5094 43.2883 18.4103C43.4366 18.3112 43.611 18.2583 43.7894 18.2583C44.0287 18.2583 44.2581 18.3534 44.4273 18.5225C44.5964 18.6917 44.6914 18.9211 44.6914 19.1603Z" fill="#1C4C9F"/>
<path d="M47.385 26.1706V22.3857H46.8929V26.1706H47.385Z" fill="#1C4C9F"/>
<path d="M45.8015 21.2736C45.8015 21.5382 45.88 21.7969 46.027 22.017C46.174 22.237 46.383 22.4085 46.6275 22.5098C46.872 22.611 47.1411 22.6376 47.4006 22.5859C47.6602 22.5343 47.8986 22.4069 48.0857 22.2197C48.2729 22.0326 48.4003 21.7942 48.4519 21.5346C48.5035 21.2751 48.4771 21.006 48.3758 20.7615C48.2745 20.517 48.103 20.3081 47.8829 20.161C47.6629 20.014 47.4042 19.9355 47.1396 19.9355C46.7847 19.9355 46.4443 20.0765 46.1934 20.3274C45.9425 20.5784 45.8015 20.9187 45.8015 21.2736ZM48.0416 21.2736C48.0416 21.452 47.9887 21.6264 47.8896 21.7747C47.7904 21.923 47.6495 22.0387 47.4847 22.1069C47.3199 22.1752 47.1386 22.193 46.9636 22.1582C46.7886 22.1234 46.6279 22.0375 46.5018 21.9114C46.3756 21.7853 46.2897 21.6245 46.2549 21.4496C46.2201 21.2746 46.238 21.0932 46.3063 20.9284C46.3745 20.7636 46.4901 20.6227 46.6385 20.5236C46.7868 20.4245 46.9612 20.3716 47.1396 20.3716C47.2583 20.3712 47.3759 20.3943 47.4857 20.4394C47.5954 20.4846 47.6952 20.551 47.7793 20.6348C47.8633 20.7186 47.93 20.8181 47.9755 20.9277C48.021 21.0374 48.0445 21.1549 48.0445 21.2736H48.0416Z" fill="#1C4C9F"/>
<path d="M40.6321 26.1579V22.373H40.14V26.1579H40.6321Z" fill="#1C4C9F"/>
<path d="M39.048 21.2482C39.048 21.5128 39.1264 21.7715 39.2735 21.9916C39.4205 22.2116 39.6295 22.3831 39.874 22.4844C40.1185 22.5857 40.3875 22.6122 40.6471 22.5605C40.9066 22.5089 41.145 22.3815 41.3321 22.1944C41.5193 22.0072 41.6467 21.7688 41.6984 21.5092C41.75 21.2497 41.7235 20.9806 41.6222 20.7361C41.5209 20.4916 41.3494 20.2827 41.1294 20.1357C40.9094 19.9886 40.6507 19.9102 40.386 19.9102C40.0312 19.9102 39.6908 20.0511 39.4399 20.3021C39.1889 20.553 39.048 20.8933 39.048 21.2482ZM41.288 21.2482C41.288 21.4266 41.2351 21.601 41.136 21.7493C41.0369 21.8976 40.896 22.0132 40.7312 22.0815C40.5664 22.1498 40.385 22.1677 40.21 22.1329C40.0351 22.0981 39.8743 22.0122 39.7482 21.886C39.622 21.7599 39.5362 21.5991 39.5014 21.4242C39.4666 21.2492 39.4844 21.0679 39.5527 20.903C39.621 20.7382 39.7366 20.5973 39.8849 20.4982C40.0332 20.3991 40.2076 20.3462 40.386 20.3462C40.5046 20.346 40.622 20.3692 40.7316 20.4144C40.8412 20.4597 40.9408 20.5261 41.0248 20.6099C41.1087 20.6937 41.1752 20.7932 41.2207 20.9027C41.2661 21.0122 41.2894 21.1296 41.2894 21.2482H41.288Z" fill="#1C4C9F"/>
<path d="M44.8732 10.6466L32.0198 23.4985L30.9154 22.3949L43.7674 9.54297L44.8732 10.6466Z" fill="#1C746F"/>
<path d="M77.6751 27.7051H9.74548V26.1436H77.6751V27.7051Z" fill="#1C4C9F"/>
<path d="M33.3135 10.7852L37.9239 15.3955L36.8195 16.4999L32.2091 11.8895L33.3135 10.7852Z" fill="#CB9633"/>
<path d="M32.0367 23.4893H13.861V21.9277H32.0367V23.4893Z" fill="#1C746F"/>
<path d="M73.6957 23.4893H55.52V21.9277H73.6957V23.4893Z" fill="#1C746F"/>
<path d="M43.7667 9.53418L56.6187 22.3861L55.5144 23.4898L42.6624 10.6378L43.7667 9.53418Z" fill="#1C746F"/>
<path d="M75.3761 20.0654C74.8491 20.0654 74.334 20.2217 73.8958 20.5145C73.4577 20.8072 73.1161 21.2234 72.9145 21.7103C72.7128 22.1971 72.6601 22.7329 72.7629 23.2497C72.8657 23.7666 73.1194 24.2413 73.492 24.6139C73.8646 24.9866 74.3394 25.2403 74.8563 25.3431C75.3731 25.446 75.9089 25.3932 76.3957 25.1915C76.8826 24.9899 77.2987 24.6483 77.5915 24.2102C77.8843 23.772 78.0405 23.2569 78.0405 22.7299C78.0405 22.0232 77.7598 21.3455 77.2601 20.8458C76.7604 20.3461 76.0827 20.0654 75.3761 20.0654ZM75.3761 24.2587C75.0737 24.2587 74.7782 24.169 74.5268 24.001C74.2754 23.833 74.0793 23.5943 73.9636 23.3149C73.8479 23.0356 73.8176 22.7282 73.8766 22.4316C73.9356 22.1351 74.0813 21.8627 74.2951 21.6489C74.5089 21.4351 74.7813 21.2895 75.0778 21.2305C75.3744 21.1715 75.6818 21.2018 75.9612 21.3175C76.2405 21.4332 76.4792 21.6291 76.6472 21.8805C76.8152 22.132 76.9048 22.4275 76.9048 22.7299C76.9046 23.1352 76.7435 23.5239 76.4569 23.8104C76.1702 24.097 75.7814 24.2579 75.3761 24.2579V24.2587Z" fill="#1C746F"/>
<path d="M8.94983 22.7289C8.94983 23.2559 9.1061 23.771 9.39887 24.2092C9.69164 24.6474 10.1078 24.9889 10.5947 25.1905C11.0815 25.3922 11.6172 25.445 12.1341 25.3421C12.651 25.2393 13.1257 24.9856 13.4983 24.613C13.871 24.2403 14.1247 23.7656 14.2275 23.2487C14.3304 22.7319 14.2776 22.1961 14.0759 21.7093C13.8742 21.2224 13.5327 20.8063 13.0946 20.5135C12.6564 20.2207 12.1413 20.0645 11.6143 20.0645C10.9076 20.0645 10.2299 20.3452 9.73023 20.8449C9.23055 21.3445 8.94983 22.0222 8.94983 22.7289ZM10.0862 22.7289C10.0862 22.4265 10.1759 22.131 10.3439 21.8796C10.5119 21.6282 10.7506 21.4322 11.03 21.3165C11.3093 21.2008 11.6167 21.1705 11.9133 21.2295C12.2098 21.2885 12.4822 21.4341 12.696 21.6479C12.9098 21.8617 13.0554 22.1341 13.1144 22.4306C13.1734 22.7272 13.1431 23.0346 13.0274 23.314C12.9117 23.5933 12.7158 23.8321 12.4644 24C12.2129 24.168 11.9174 24.2577 11.615 24.2577C11.2096 24.2577 10.8207 24.0966 10.534 23.8099C10.2473 23.5232 10.0862 23.1344 10.0862 22.7289Z" fill="#1C746F"/>
<path d="M34.4173 11.8888L27.0304 19.2764L25.926 18.1721L33.313 10.7852L34.4173 11.8888Z" fill="#CB9633"/>
<path d="M27.0347 19.2774H19.3762V17.7158H27.0347V19.2774Z" fill="#CB9633"/>
<path d="M54.8483 11.4249L50.2379 16.0353L49.1335 14.9317L53.7439 10.3213L54.8483 11.4249Z" fill="#CB9633"/>
<path d="M53.743 10.3203L61.1299 17.7072L60.0256 18.8116L52.6387 11.4247L53.743 10.3203Z" fill="#CB9633"/>
<path d="M60.0242 17.252H67.6819V18.8135H60.0242V17.252Z" fill="#CB9633"/>
<path opacity="0.3" d="M50.5647 4.62402H36.9272C36.6377 4.62402 36.4031 4.85869 36.4031 5.14818V5.1489C36.4031 5.43839 36.6377 5.67306 36.9272 5.67306H50.5647C50.8542 5.67306 51.0889 5.43839 51.0889 5.1489V5.14818C51.0889 4.85869 50.8542 4.62402 50.5647 4.62402Z" fill="#1C304C"/>
<path d="M50.5647 2.21777H36.9272C36.6377 2.21777 36.4031 2.45245 36.4031 2.74193V2.74266C36.4031 3.03214 36.6377 3.26681 36.9272 3.26681H50.5647C50.8542 3.26681 51.0889 3.03214 51.0889 2.74266V2.74193C51.0889 2.45245 50.8542 2.21777 50.5647 2.21777Z" fill="#1C304C"/>
<path opacity="0.1" d="M50.626 7.03125H36.9885C36.699 7.03125 36.4644 7.26592 36.4644 7.5554V7.55613C36.4644 7.84561 36.699 8.08028 36.9885 8.08028H50.626C50.9155 8.08028 51.1501 7.84561 51.1501 7.55613V7.5554C51.1501 7.26592 50.9155 7.03125 50.626 7.03125Z" fill="#1C304C"/>
<path d="M31.2555 0H35.4924L31.2606 4.23181L31.2555 0Z" fill="#1C304C"/>
</g>
<g clip-path="url(#clip1)">
<path d="M0.941525 49.7589V40.8352C0.927403 40.1528 1.16005 39.4882 1.59671 38.9636C1.79338 38.7093 2.04671 38.5045 2.33652 38.3655C2.62634 38.2265 2.94461 38.1571 3.266 38.1628H5.59047C7.06587 38.1628 7.79532 39.1123 7.77882 41.0114V47.5102H9.34911V49.7589H0.941525ZM4.15632 35.2719C4.17546 35.4847 4.15056 35.699 4.08319 35.9017C4.01581 36.1044 3.9074 36.291 3.76471 36.45C3.62203 36.6089 3.44814 36.7368 3.25387 36.8255C3.0596 36.9143 2.84912 36.9621 2.63556 36.9659C2.22596 36.9546 1.83292 36.8018 1.5232 36.5335C1.28772 36.2047 1.13876 35.8219 1.09004 35.4204C1.10435 35.0296 1.25799 34.6567 1.5232 34.3692C1.7662 34.0932 2.10847 33.9244 2.4754 33.8997C2.69916 33.8866 2.92313 33.9218 3.13212 34.0028C3.34111 34.0838 3.53026 34.2088 3.68678 34.3692C3.82713 34.4754 3.94208 34.6115 4.02329 34.7677C4.10451 34.9238 4.14995 35.096 4.15632 35.2719ZM4.32959 40.4406C3.76904 40.4406 3.48464 40.7923 3.47639 41.4955V47.4884H5.24469V41.5079C5.1947 40.7964 4.88966 40.4406 4.32959 40.4406ZM7.56916 35.2231C7.58791 35.4364 7.56282 35.6513 7.49545 35.8545C7.42807 36.0577 7.31982 36.245 7.17737 36.4048C7.03492 36.5647 6.86129 36.6937 6.66713 36.7839C6.47297 36.8742 6.2624 36.9237 6.04837 36.9295C5.63853 36.9183 5.24523 36.7655 4.93528 36.4971C4.70009 36.1682 4.55139 35.7855 4.50286 35.384C4.51713 34.9935 4.67049 34.6209 4.93528 34.3335C5.17833 34.0576 5.52059 33.8888 5.8875 33.864C6.11127 33.8509 6.33521 33.8861 6.5442 33.9671C6.75319 34.0482 6.94236 34.1731 7.09888 34.3335C7.2391 34.4364 7.35418 34.5697 7.43551 34.7234C7.51683 34.8771 7.56228 35.0472 7.56843 35.221L7.56916 35.2231Z" fill="#1C304C"/>
<path d="M9.07678 49.7607V47.4857H13.3916V38.1143H15.9264V47.4857H17.8192V49.7607H9.07678ZM12.2669 52.0357C12.2861 52.2484 12.2613 52.4629 12.1939 52.6656C12.1266 52.8683 12.0182 53.055 11.8755 53.2139C11.7328 53.3729 11.5588 53.5008 11.3645 53.5895C11.1702 53.6782 10.9597 53.7259 10.7461 53.7297C10.3362 53.7184 9.94295 53.5656 9.63297 53.2973C9.39772 52.9684 9.24902 52.5856 9.20055 52.1842C9.21465 51.7934 9.36803 51.4205 9.63297 51.1329C9.75039 50.9959 9.89404 50.8838 10.0554 50.8032C10.2168 50.7225 10.3927 50.675 10.5728 50.6634C10.7984 50.6509 11.024 50.6863 11.2349 50.7672C11.4458 50.8482 11.6372 50.9728 11.7966 51.1329C11.937 51.239 12.0521 51.3751 12.1335 51.5313C12.2148 51.6874 12.2604 51.8597 12.2669 52.0357ZM15.6797 51.9862C15.6984 52.1994 15.6733 52.4143 15.606 52.6175C15.5386 52.8207 15.4304 53.008 15.2879 53.1679C15.1455 53.3277 14.9718 53.4567 14.7776 53.5469C14.5835 53.6372 14.3729 53.6867 14.1589 53.6926C13.7491 53.6813 13.3558 53.5285 13.0458 53.2602C12.8106 52.9315 12.6619 52.549 12.6134 52.1478C12.6275 51.757 12.7808 51.3841 13.0458 51.0965C13.1632 50.9595 13.3069 50.8474 13.4683 50.7668C13.6297 50.6862 13.8056 50.6386 13.9856 50.627C14.2112 50.6145 14.4368 50.6499 14.6478 50.7308C14.8587 50.8118 15.0501 50.9364 15.2094 51.0965C15.35 51.1997 15.4653 51.3334 15.5467 51.4877C15.628 51.6419 15.6732 51.8126 15.6789 51.9869L15.6797 51.9862Z" fill="#1C304C"/>
<path d="M28.2907 49.7607H17.7196L17.6948 47.4857H19.6364V38.1142H24.1499C24.4702 38.1045 24.7885 38.1686 25.0801 38.3015C25.3717 38.4344 25.6288 38.6327 25.8316 38.8809C26.2703 39.4212 26.4987 40.102 26.4744 40.7976V47.4864H28.2944L28.2907 49.7607ZM23.9359 41.0816C23.9359 40.5293 23.4042 40.2985 22.3408 40.3892H22.1676V46.7439C22.1676 47.2777 22.757 47.5204 23.9359 47.4718V41.0816Z" fill="#1C304C"/>
<path d="M36.7231 49.7592H28.1547V47.4842H31.2704L29.8872 46.3959V41.2337C29.9087 40.533 30.1608 39.859 30.6043 39.3162C30.9496 38.9153 31.3863 38.6034 31.8776 38.4069L32.5204 38.2351C32.7153 38.1915 32.914 38.1671 33.1137 38.1623H33.485C33.8101 38.1736 34.1314 38.2357 34.4372 38.3465C35.0379 38.5276 35.5854 38.8525 36.0322 39.2929C36.2736 39.5424 36.4599 39.8398 36.5792 40.1658C36.6984 40.4919 36.748 40.8393 36.7246 41.1857L36.7231 49.7592ZM32.9026 35.2722C32.9217 35.4849 32.8968 35.6993 32.8295 35.902C32.7621 36.1047 32.6537 36.2913 32.511 36.4503C32.3683 36.6092 32.1944 36.737 32.0001 36.8258C31.8059 36.9146 31.5954 36.9624 31.3818 36.9662C30.9722 36.9549 30.5792 36.8021 30.2695 36.5338C30.0341 36.205 29.8854 35.8222 29.837 35.4207C29.8511 35.0299 30.0045 34.6571 30.2695 34.3695C30.3869 34.2325 30.5306 34.1204 30.692 34.0398C30.8534 33.9592 31.0293 33.9116 31.2093 33.8999C31.4348 33.8877 31.6604 33.9232 31.8713 34.0041C32.0821 34.085 32.2736 34.2095 32.433 34.3695C32.5733 34.4757 32.6883 34.6119 32.7695 34.768C32.8507 34.9241 32.8962 35.0963 32.9026 35.2722ZM33.2921 40.3907C33.143 40.38 32.9932 40.3968 32.8502 40.4402C32.7724 40.435 32.6953 40.4569 32.6318 40.5021C32.5553 40.6035 32.5053 40.7223 32.4862 40.8479L32.425 41.182V47.4879H34.1933V41.1544C34.1342 40.9565 34.0242 40.7776 33.8745 40.6353C33.8006 40.5551 33.7104 40.4915 33.61 40.4491C33.5095 40.4067 33.4011 40.3863 33.2921 40.3893V40.3907ZM36.3147 35.222C36.3335 35.4352 36.3084 35.6501 36.241 35.8533C36.1736 36.0566 36.0654 36.2439 35.9229 36.4037C35.7805 36.5635 35.6068 36.6925 35.4127 36.7828C35.2185 36.873 35.008 36.9225 34.7939 36.9284C34.3843 36.917 33.9913 36.7642 33.6816 36.4959C33.4463 36.1671 33.2975 35.7843 33.2491 35.3828C33.2634 34.9923 33.4168 34.6198 33.6816 34.3324C33.799 34.1954 33.9426 34.0833 34.104 34.0027C34.2654 33.922 34.4414 33.8745 34.6214 33.8628C34.847 33.8503 35.0726 33.8857 35.2835 33.9667C35.4944 34.0476 35.6858 34.1722 35.8451 34.3324C35.9855 34.4353 36.1008 34.5689 36.1821 34.7228C36.2635 34.8768 36.3088 35.0472 36.3147 35.2212V35.222Z" fill="#1C304C"/>
<path d="M41.2112 49.7607V54.6943H38.6763V38.1143H41.2112V47.4857H43.1767V49.7607H41.2112Z" fill="#1C304C"/>
<path d="M42.7805 49.7608V47.4858H44.9565V32.0312H47.4914V49.7608H42.7805Z" fill="#1C304C"/>
<path d="M50.0881 32.0312H52.623V49.7608L50.0881 49.736V32.0312Z" fill="#1C304C"/>
<path d="M62.0803 49.7607V54.6943H59.5454V38.1143H62.0803V47.4857H64.0459V49.7607H62.0803Z" fill="#1C304C"/>
<path d="M65.7409 47.4868V38.0898H68.275V39.1782C68.4235 39.3762 68.8067 39.2854 69.4245 38.9059C69.8954 38.5896 70.4187 38.3594 70.97 38.226C72.1787 38.1226 73.3923 38.0895 74.6048 38.127V47.486H76.5085V49.761H63.4892L63.4397 47.486L65.7409 47.4868ZM68.275 47.4868H72.0707V40.6713L71.6252 40.6466C71.062 40.5915 70.4976 40.736 70.0302 41.055C69.5023 41.3936 68.8993 41.5973 68.2743 41.6483L68.275 47.4868Z" fill="#1C304C"/>
<path d="M76.0645 49.7605V47.4855H78.1029V38.1141H82.6164C82.9347 38.1053 83.2507 38.17 83.5401 38.3029C83.8294 38.4358 84.0843 38.6335 84.285 38.8807C84.7242 39.4214 84.9564 40.101 84.9401 40.7975V49.7605H76.0645ZM82.4075 41.0814C82.4075 40.5291 81.8758 40.2983 80.8125 40.389H80.6392V46.7437C80.6392 47.2775 81.2284 47.5202 82.4067 47.4717L82.4075 41.0814Z" fill="#1C304C"/>
</g>
<defs>
<clipPath id="clip0">
<rect width="69.0907" height="27.7052" fill="white" transform="translate(8.94983)"/>
</clipPath>
<clipPath id="clip1">
<rect width="84" height="22.6631" fill="white" transform="translate(0.941406 32.0312)"/>
</clipPath>
</defs>
</svg>
