<svg xmlns="http://www.w3.org/2000/svg" viewBox="0 0 64 64" role="img" aria-label="IIS">
  <rect width="64" height="64" rx="12" fill="#2563eb"/>
  <path fill="#bfdbfe" d="M12 14h40v10H12zm0 14h40v10H12zm0 14h40v10H12z"/>
  <circle cx="18" cy="19" r="2" fill="#1e3a8a"/>
  <circle cx="18" cy="33" r="2" fill="#1e3a8a"/>
  <circle cx="18" cy="47" r="2" fill="#1e3a8a"/>
  <path fill="#fff" d="M27 24h4v20h-4zm7 0h4v20h-4zm8 15c1 1 3 2 5 2 1 0 2-1 2-2s-1-1-3-2c-3-1-5-3-5-6s3-6 7-6c3 0 5 1 7 2l-2 4c-1-1-3-1-5-1-1 0-2 0-2 1s1 1 3 2c3 1 5 3 5 6 0 4-3 6-8 6-3 0-6-1-8-3z"/>
</svg>
